<svg width="810" height="160" viewBox="0 0 214.31 42.33" xmlns:xlink="http://www.w3.org/1999/xlink" xmlns="http://www.w3.org/2000/svg"><defs><linearGradient id="a"><stop offset="0" stop-color="#141b62"/><stop offset="1" stop-color="#7a2c92"/></linearGradient><linearGradient id="b"><stop offset="0" stop-color="#491c9c"/><stop offset="1" stop-color="#d54b27"/></linearGradient><linearGradient xlink:href="#a" id="d" gradientUnits="userSpaceOnUse" x1="6.27" y1="34.86" x2="87.72" y2="13.24" gradientTransform="translate(-2.64 -18.48)"/><linearGradient xlink:href="#b" id="f" gradientUnits="userSpaceOnUse" gradientTransform="translate(-2.64 -18.48)" x1="6.27" y1="34.86" x2="87.72" y2="13.24"/><linearGradient xlink:href="#b" id="e" gradientUnits="userSpaceOnUse" gradientTransform="translate(-2.64 -18.48)" x1="6.27" y1="34.86" x2="87.72" y2="13.24"/><linearGradient xlink:href="#b" id="g" gradientUnits="userSpaceOnUse" gradientTransform="translate(-3.96 -19.01)" x1="6.27" y1="34.86" x2="87.72" y2="13.24"/><linearGradient xlink:href="#a" id="c" gradientUnits="userSpaceOnUse" gradientTransform="translate(-2.64 -18.48)" x1="6.27" y1="34.86" x2="87.72" y2="13.24"/></defs><g transform="translate(22.49 7.94)"><rect width="10.57" height="10.66" x="84.67" y="-5.29" ry="1.37" fill="#3dbdaa"/><circle cx="89.96" cy="5.29" r=".79" fill="#666"/><path d="M99.22 7.94c-3.97 0-9.26 0-9.26-2.65" fill="none" stroke="#999" stroke-width=".86" stroke-linecap="round"/><g transform="translate(96.57 -.04)"><rect width="68.79" height="10.58" x="2.65" y="2.68" ry="1.37" fill="url(#c)"/><rect width="15.35" height="9.51" x="3.18" y="3.21" ry=".9" fill="#78a2d4"/><rect width="9.26" height="9.51" x="19.85" y="3.2" ry=".9" fill="#8e9ddd"/><rect width="9.26" height="9.51" x="29.64" y="3.22" ry=".9" fill="#8e9ddd"/><rect width="9.26" height="9.51" x="39.43" y="3.22" ry=".9" fill="#8e9ddd"/><rect width="9.26" height="9.51" x="49.22" y="3.21" ry=".9" fill="#7785c1"/><circle cx="62.84" cy="7.97" r=".66" fill="#eaa577"/><circle cx="64.7" cy="7.97" r=".66" fill="#eaa577"/><circle cx="66.55" cy="7.97" r=".66" fill="#eaa577"/></g><circle cx="120.91" cy="12.7" r=".79" fill="#666"/><circle cx="130.7" cy="12.7" r=".79" fill="#666"/><circle cx="140.49" cy="12.7" r=".79" fill="#666"/><path d="M54.24 21.17c0-5.3 76.46 0 76.46-8.47" fill="none" stroke="#b3b3b3" stroke-width=".86" stroke-linecap="round"/><path d="M-15.88 21.17c0-6.62 136.8-1.86 136.8-8.47" fill="none" stroke="#b3b3b3" stroke-width=".86" stroke-linecap="round"/><rect width="10.57" height="10.66" x="-6.61" y="-5.37" ry="1.37" fill="#3dbdaa"/><rect width="10.57" height="10.66" x="-19.83" y="-5.33" ry="1.37" fill="#3dbdaa"/><circle cx="-14.55" cy="5.29" r=".79" fill="#666"/><circle cx="-1.32" cy="5.29" r=".79" fill="#666"/><path d="M7.94 7.94c-3.97 0-9.26 0-9.26-2.65m9.26 3.97c-3.97 0-22.5 0-22.5-3.97" fill="none" stroke="#999" stroke-width=".86" stroke-linecap="round"/><g transform="translate(5.29 -.04)"><rect width="68.79" height="10.58" x="2.65" y="2.68" ry="1.37" fill="url(#d)"/><rect width="15.35" height="9.51" x="3.18" y="3.21" ry=".9" fill="#78a2d4"/><rect width="9.26" height="9.51" x="19.85" y="3.2" ry=".9" fill="#8e9ddd"/><rect width="9.26" height="9.51" x="29.64" y="3.22" ry=".9" fill="#8e9ddd"/><rect width="9.26" height="9.51" x="39.43" y="3.22" ry=".9" fill="#7785c1"/><rect width="9.26" height="9.51" x="49.22" y="3.21" ry=".9" fill="#7785c1"/><circle cx="62.84" cy="7.97" r=".66" fill="#eaa577"/><circle cx="64.7" cy="7.97" r=".66" fill="#eaa577"/><circle cx="66.55" cy="7.97" r=".66" fill="#eaa577"/></g><circle cx="30.43" cy="12.7" r=".79" fill="#666"/><circle cx="39.69" cy="12.7" r=".79" fill="#666"/><path d="M-17.2 21.17c0-6.62 47.63-1.86 47.63-8.47m22.49 8.47c0-6.62-13.23-1.86-13.23-8.47" fill="none" stroke="#999" stroke-width=".86" stroke-linecap="round"/><g transform="translate(47.62 18.48)"><rect width="68.79" height="10.58" x="2.65" y="2.68" ry="1.37" fill="url(#e)"/><rect width="15.35" height="9.51" x="3.18" y="3.21" ry=".9" fill="#78a2d4"/><rect width="9.26" height="9.51" x="19.85" y="3.2" ry=".9" fill="#eaa577"/><rect width="9.26" height="9.51" x="29.64" y="3.22" ry=".9" fill="#eaa577"/><rect width="9.26" height="9.51" x="39.43" y="3.22" ry=".9" fill="#eaa577"/><rect width="9.26" height="9.51" x="49.22" y="3.21" ry=".9" fill="#eaa577"/><circle cx="62.84" cy="7.97" r=".66" fill="#eaa577"/><circle cx="64.7" cy="7.97" r=".66" fill="#eaa577"/><circle cx="66.55" cy="7.97" r=".66" fill="#eaa577"/></g><g transform="translate(-22.5 18.48)"><rect width="68.79" height="10.58" x="2.65" y="2.68" ry="1.37" fill="url(#f)"/><rect width="15.35" height="9.51" x="3.18" y="3.21" ry=".9" fill="#78a2d4"/><rect width="9.26" height="9.51" x="19.85" y="3.2" ry=".9" fill="#eaa577"/><rect width="9.26" height="9.51" x="29.64" y="3.22" ry=".9" fill="#eaa577"/><rect width="9.26" height="9.51" x="39.43" y="3.22" ry=".9" fill="#eaa577"/><rect width="9.26" height="9.51" x="49.22" y="3.21" ry=".9" fill="#eaa577"/><circle cx="62.84" cy="7.97" r=".66" fill="#eaa577"/><circle cx="64.7" cy="7.97" r=".66" fill="#eaa577"/><circle cx="66.55" cy="7.97" r=".66" fill="#eaa577"/></g><path d="M123.03 21.17c0-6.62 17.46-1.86 17.46-8.47" fill="none" stroke="#b3b3b3" stroke-width=".86" stroke-linecap="round"/><g transform="translate(119.06 19.01)"><rect width="68.79" height="10.58" x="1.33" y="2.15" ry="1.37" fill="url(#g)"/><rect width="15.35" height="9.51" x="1.86" y="2.68" ry=".9" fill="#78a2d4"/><rect width="9.26" height="9.51" x="18.53" y="2.68" ry=".9" fill="#eaa577"/><rect width="9.26" height="9.51" x="28.32" y="2.69" ry=".9" fill="#eaa577"/><rect width="9.26" height="9.51" x="38.11" y="2.69" ry=".9" fill="#eaa577"/><rect width="9.26" height="9.51" x="47.89" y="2.68" ry=".9" fill="#ca8659"/><circle cx="61.52" cy="7.45" r=".66" fill="#eaa577"/><circle cx="63.37" cy="7.45" r=".66" fill="#eaa577"/><circle cx="65.23" cy="7.45" r=".66" fill="#eaa577"/></g></g></svg>