<svg width="280" height="120" viewBox="0 0 74.08 31.75" xmlns:xlink="http://www.w3.org/1999/xlink" xmlns="http://www.w3.org/2000/svg"><defs><linearGradient id="a"><stop offset="0" stop-color="#491c9c"/><stop offset="1" stop-color="#d54b27"/></linearGradient><linearGradient xlink:href="#a" id="b" gradientUnits="userSpaceOnUse" x1="6.27" y1="34.86" x2="87.72" y2="13.24" gradientTransform="translate(-2.64 -18.48)"/></defs><rect width="10.57" height="10.66" x="2.66" y="18.48" ry="1.37" fill="#3dbdaa"/><rect width="10.57" height="10.66" x="15.88" y="18.52" ry="1.37" fill="#3dbdaa"/><rect width="10.57" height="10.66" x="29.11" y="18.52" ry="1.37" fill="#3dbdaa"/><circle cx="33.87" cy="18.56" r=".79" fill="#666"/><circle cx="7.41" cy="18.56" r=".79" fill="#666"/><circle cx="20.64" cy="18.56" r=".79" fill="#666"/><path d="M7.38 18.54c.03-2.63-3.41-2.66-3.41-5.31" fill="none" stroke="#999" stroke-width=".86" stroke-linecap="round"/><path d="M20.64 18.56c0-2.91-15.35-1.36-15.35-5.33" fill="none" stroke="#999" stroke-width=".86" stroke-linecap="round"/><path d="M33.87 18.56c0-3.97-27.26-2.68-27.26-5.33" fill="none" stroke="#999" stroke-width=".86" stroke-linecap="round"/><rect width="68.79" height="10.58" x="2.65" y="2.68" ry="1.37" fill="url(#b)"/><rect width="15.35" height="9.51" x="3.18" y="3.21" ry=".9" fill="#78a2d4"/><rect width="9.26" height="9.51" x="19.85" y="3.2" ry=".9" fill="#eaa577"/><rect width="9.26" height="9.51" x="29.64" y="3.22" ry=".9" fill="#eaa577"/><rect width="9.26" height="9.51" x="39.43" y="3.22" ry=".9" fill="#eaa577"/><rect width="9.26" height="9.51" x="49.22" y="3.21" ry=".9" fill="#eaa577"/><circle cx="62.84" cy="7.97" r=".66" fill="#eaa577"/><circle cx="64.7" cy="7.97" r=".66" fill="#eaa577"/><circle cx="66.55" cy="7.97" r=".66" fill="#eaa577"/></svg>