<svg width="280" height="120" viewBox="0 0 74.08 31.75" xmlns:xlink="http://www.w3.org/1999/xlink" xmlns="http://www.w3.org/2000/svg"><defs><linearGradient id="a"><stop offset="0" stop-color="#491c9c"/><stop offset="1" stop-color="#d54b27"/></linearGradient><linearGradient xlink:href="#a" id="b" gradientUnits="userSpaceOnUse" x1="6.27" y1="34.86" x2="87.72" y2="13.24" gradientTransform="translate(-2.64 -18.48)"/></defs><rect width="10.57" height="10.66" x="7.94" y="18.45" ry="1.37" fill="#3dbdaa"/><circle cx="12.7" cy="18.48" r=".79" fill="#666"/><path d="M12.7 18.48c0-3.93 7.14-1.28 7.14-5.25" fill="none" stroke="#999" stroke-width=".86" stroke-linecap="round"/><rect width="68.79" height="10.58" x="2.65" y="2.68" ry="1.37" fill="url(#b)"/><rect width="15.35" height="9.51" x="3.18" y="3.21" ry=".9" fill="#78a2d4"/><rect width="9.26" height="9.51" x="19.85" y="3.2" ry=".9" fill="#eaa577"/><rect width="9.26" height="9.51" x="29.64" y="3.22" ry=".9" fill="#eaa577"/><rect width="9.26" height="9.51" x="39.43" y="3.22" ry=".9" fill="#eaa577"/><rect width="9.26" height="9.51" x="49.22" y="3.21" ry=".9" fill="#eaa577"/><circle cx="62.84" cy="7.97" r=".66" fill="#eaa577"/><circle cx="64.7" cy="7.97" r=".66" fill="#eaa577"/><circle cx="66.55" cy="7.97" r=".66" fill="#eaa577"/></svg>